<?xml version="1.0" encoding="iso-8859-1"?>
<!-- Generator: Adobe Illustrator 19.1.0, SVG Export Plug-In . SVG Version: 6.00 Build 0)  -->
<svg version="1.1" id="Capa_1" xmlns="http://www.w3.org/2000/svg" xmlns:xlink="http://www.w3.org/1999/xlink" x="0px" y="0px"
	 viewBox="0 0 74 74" style="enable-background:new 0 0 74 74;" xml:space="preserve">
<g>
	<g>
		<path d="M23,51.881c1.104,0,2-0.896,2-2v-25c0-1.104-0.896-2-2-2s-2,0.896-2,2v25C21,50.986,21.896,51.881,23,51.881z"/>
		<path d="M29.189,42.409l17.894,8.966c0.277,0.14,0.334,0.212,0.646,0.212c2.493,0,4.271-2.047,4.271-4.562V27.812
			c0-2.516-1.778-4.562-4.271-4.562c-0.311,0-0.492,0.072-0.771,0.212l-17.829,8.956c-3.031,1.473-3.637,3.531-3.637,4.999
			C25.492,39.52,26.758,41.199,29.189,42.409z M30.961,36.006l17.06-8.664C48.162,27.441,48,27.611,48,27.813v19.212
			c0,0.202,0.161,0.373,0.021,0.472l-17.169-8.666c-1.453-0.724-1.391-1.242-1.391-1.413C29.461,36.827,30.293,36.329,30.961,36.006
			z"/>
		<path d="M74,16.526c0-4.985-4.041-9.026-9.025-9.026H9.025C4.041,7.5,0,11.542,0,16.527v40.947c0,4.985,4.041,9.026,9.025,9.026
			h55.949c4.984,0,9.025-4.041,9.025-9.026L74,16.526L74,16.526z M70,57.474c0,2.776-2.25,5.026-5.025,5.026H9.025
			C6.25,62.5,4,60.25,4,57.474V16.526C4,13.75,6.25,11.5,9.025,11.5h55.949c2.775,0,5.025,2.25,5.025,5.026L70,57.474L70,57.474z"/>
	</g>
</g>
<g>
</g>
<g>
</g>
<g>
</g>
<g>
</g>
<g>
</g>
<g>
</g>
<g>
</g>
<g>
</g>
<g>
</g>
<g>
</g>
<g>
</g>
<g>
</g>
<g>
</g>
<g>
</g>
<g>
</g>
</svg>
