<?xml version="1.0" encoding="iso-8859-1"?>
<!-- Generator: Adobe Illustrator 19.1.0, SVG Export Plug-In . SVG Version: 6.00 Build 0)  -->
<svg version="1.1" id="Capa_1" xmlns="http://www.w3.org/2000/svg" xmlns:xlink="http://www.w3.org/1999/xlink" x="0px" y="0px"
	 viewBox="0 0 44.001 44.001" style="enable-background:new 0 0 44.001 44.001;" xml:space="preserve">
<g>
	<g>
		<path d="M4,40V4c0-1.104-0.896-2-2-2S0,2.896,0,4v36c0,1.104,0.896,2,2,2S4,41.105,4,40z"/>
		<path d="M6.643,21.984c0,2.642,1.6,4.777,4.767,6.355l26.047,12.765c0.273,0.135,0.325,0.204,0.63,0.204
			c2.915,0,5.914-2.319,5.914-5.648V8.308c0-3.327-2.999-5.646-5.914-5.646c-0.308,0-0.486,0.071-0.763,0.208L11.612,15.628
			C7.453,17.65,6.643,20.2,6.643,21.984z M38.476,6.701C39.384,6.877,40,7.621,40,8.307V35.66c0,0.688-0.619,1.436-1.528,1.61
			L13.056,24.754c-2.538-1.265-2.476-2.358-2.476-2.77c0-1.225,1.648-2.254,2.7-2.766L38.476,6.701z"/>
	</g>
</g>
<g>
</g>
<g>
</g>
<g>
</g>
<g>
</g>
<g>
</g>
<g>
</g>
<g>
</g>
<g>
</g>
<g>
</g>
<g>
</g>
<g>
</g>
<g>
</g>
<g>
</g>
<g>
</g>
<g>
</g>
</svg>
