<?xml version="1.0" encoding="iso-8859-1"?>
<!-- Generator: Adobe Illustrator 19.1.0, SVG Export Plug-In . SVG Version: 6.00 Build 0)  -->
<svg version="1.1" id="Capa_1" xmlns="http://www.w3.org/2000/svg" xmlns:xlink="http://www.w3.org/1999/xlink" x="0px" y="0px"
	 viewBox="0 0 67.551 67.551" style="enable-background:new 0 0 67.551 67.551;" xml:space="preserve">
<g>
	<g>
		<path d="M46.015,49.88c0.391,0.391,0.902,0.586,1.414,0.586s1.023-0.195,1.414-0.586l18.122-18.12
			c0.375-0.375,0.586-0.884,0.586-1.414s-0.211-1.039-0.586-1.414L48.844,10.809c-0.781-0.781-2.047-0.781-2.828,0
			s-0.781,2.047,0,2.828l14.85,14.852c-2.017-0.058-4.17-0.148-6.421-0.247c-16.326-0.718-36.647-1.608-47.423,8.704
			C2.362,41.406,0,47.591,0,55.327c0,1.104,0.896,2,2,2s2-0.852,2-1.956c0-6.696,1.894-11.719,5.788-15.447
			c9.542-9.132,29.739-8.156,44.481-7.51c2.102,0.093,4.118,0.243,6.033,0.354L46.015,47.052
			C45.234,47.833,45.234,49.099,46.015,49.88z"/>
	</g>
</g>
<g>
</g>
<g>
</g>
<g>
</g>
<g>
</g>
<g>
</g>
<g>
</g>
<g>
</g>
<g>
</g>
<g>
</g>
<g>
</g>
<g>
</g>
<g>
</g>
<g>
</g>
<g>
</g>
<g>
</g>
</svg>
