<?xml version="1.0" encoding="iso-8859-1"?>
<!-- Generator: Adobe Illustrator 19.1.0, SVG Export Plug-In . SVG Version: 6.00 Build 0)  -->
<svg version="1.1" id="Capa_1" xmlns="http://www.w3.org/2000/svg" xmlns:xlink="http://www.w3.org/1999/xlink" x="0px" y="0px"
	 viewBox="0 0 58.501 58.501" style="enable-background:new 0 0 58.501 58.501;" xml:space="preserve">
<g>
	<g>
		<path d="M36.289,49.459c0.391,0.391,0.902,0.586,1.414,0.586s1.023-0.195,1.414-0.586l18.798-18.794
			c0.375-0.375,0.586-0.884,0.586-1.414s-0.211-1.039-0.586-1.414L39.119,9.041c-0.781-0.781-2.047-0.781-2.828,0
			c-0.781,0.781-0.781,2.107,0,2.888l14.804,14.863H2c-1.104,0-2,0.896-2,2s0.896,2,2,2h50.251L36.289,46.69
			C35.508,47.471,35.508,48.678,36.289,49.459z"/>
	</g>
</g>
<g>
</g>
<g>
</g>
<g>
</g>
<g>
</g>
<g>
</g>
<g>
</g>
<g>
</g>
<g>
</g>
<g>
</g>
<g>
</g>
<g>
</g>
<g>
</g>
<g>
</g>
<g>
</g>
<g>
</g>
</svg>
